<?xml version="1.0" encoding="UTF-8"?>
<svg version="1.1" xmlns="http://www.w3.org/2000/svg" width="306" height="306">
<path d="M0 0 C71.94 0 143.88 0 218 0 C222.29 9.57 226.58 19.14 231 29 C232.35738281 31.8359375 233.71476562 34.671875 235.11328125 37.59375 C243.61840786 55.62572298 248.91378848 74.21689291 242.546875 94.14453125 C240.09743392 100.87257236 236.22801956 103.88599022 230 107 C224.18400557 109.25135268 217.61664788 108.43830092 211.96484375 106.1328125 C208.38222165 104.06728485 205.70624309 101.08680852 203 98 C202.0409375 99.36125 202.0409375 99.36125 201.0625 100.75 C197.2767763 105.2502124 192.44859143 107.4867481 186.6640625 108.34765625 C177.77042997 108.69672374 171.6783141 104.35999755 165 99 C164.49210938 99.48210937 163.98421875 99.96421875 163.4609375 100.4609375 C157.43493092 105.99041919 152.66118252 108.5263602 144.375 108.31640625 C138.73774742 107.56539069 134.29692982 105.39182713 130.4375 101.25 C129.963125 100.5075 129.48875 99.765 129 99 C126.21384935 100.17875605 124.44433736 101.4831849 122.125 103.5 C117.59783795 107.33676984 113.02927243 108.43194237 107.08203125 108.25 C100.56549875 107.46752705 96.31969934 104.95494924 92 100 C91.34 99.34 90.68 98.68 90 98 C89.0409375 99.36125 89.0409375 99.36125 88.0625 100.75 C84.28550039 105.23984179 79.46902315 107.47581823 73.69921875 108.34765625 C65.29083176 108.68166817 59.35458205 105.80744023 53.25 100.20703125 C52.8375 99.80871094 52.425 99.41039062 52 99 C51.49210937 99.48210937 50.98421875 99.96421875 50.4609375 100.4609375 C44.49673666 105.93370606 39.66253163 108.57755997 31.44140625 108.3828125 C25.4751125 107.44729764 20.45387504 104.55772326 16.375 100.1875 C15.92125 99.465625 15.4675 98.74375 15 98 C14.5875 98.47050781 14.175 98.94101563 13.75 99.42578125 C8.54913417 105.03296472 3.73922998 107.9963684 -4 108.375 C-9.8183529 108.11208818 -14.41862083 106.37052862 -18.8125 102.5625 C-19.534375 101.716875 -20.25625 100.87125 -21 100 C-21.556875 99.38125 -22.11375 98.7625 -22.6875 98.125 C-29.07242526 87.78750196 -28.44313407 71.5317586 -26 60 C-22.27893833 47.34047316 -16.2711365 35.29754019 -10.56054688 23.4387207 C-6.9104162 15.68567332 -3.48032935 7.83074104 0 0 Z " fill="#160E0E" transform="translate(44,99)"/>
<path d="M0 0 C8.58 0 17.16 0 26 0 C27.47889617 4.43668852 28.50778892 8.2424931 29.2890625 12.7890625 C29.50820312 14.06007813 29.72734375 15.33109375 29.953125 16.640625 C30.11844727 17.62192383 30.11844727 17.62192383 30.28710938 18.62304688 C30.62540494 20.62739923 30.97231718 22.63012393 31.3203125 24.6328125 C33 34.47098214 33 34.47098214 33 39 C34.65 39.33 36.3 39.66 38 40 C38.33872513 41.41538717 38.67074624 42.83237963 39 44.25 C39.185625 45.03890625 39.37125 45.8278125 39.5625 46.640625 C40 49 40 49 40 53 C50.89 53 61.78 53 73 53 C72.505 50.03 72.505 50.03 72 47 C72.51566528 45.7773645 72.51566528 45.7773645 73.04174805 44.5300293 C74.38248356 40.99014594 73.4980802 39.08040453 72.33203125 35.51953125 C71.93306641 34.27236328 71.53410156 33.02519531 71.12304688 31.74023438 C70.68668647 30.43082667 70.24983455 29.12158267 69.8125 27.8125 C69.39366867 26.52327721 68.97633655 25.23356635 68.56054688 23.94335938 C67.75250758 21.44473229 66.94028613 18.94745315 66.12353516 16.45166016 C65.12828176 13.39409987 64.14714671 10.3342551 63.19921875 7.26171875 C62.96420654 6.50205811 62.72919434 5.74239746 62.48706055 4.9597168 C62 3 62 3 62 0 C70.58 0 79.16 0 88 0 C88.94101562 2.15917969 89.88203125 4.31835938 90.8515625 6.54296875 C91.78466496 8.68137733 92.71823898 10.81957947 93.65185547 12.95776367 C94.29036705 14.42076574 94.92840397 15.88397507 95.56591797 17.34741211 C99.60426176 26.61652404 103.71751506 35.840406 108 45 C107.505 43.02 107.505 43.02 107 41 C107.66 41 108.32 41 109 41 C109.33 40.01 109.66 39.02 110 38 C115.96379798 48.51271532 117.66769288 57.90952977 117.625 70 C117.62306641 71.23967529 117.62113281 72.47935059 117.61914062 73.7565918 C117.42206461 82.66166379 116.69863206 91.48744105 110 98 C103.84540985 102.24206564 98.45206155 103.71941578 91 103 C84.33135557 101.61546239 80.40617644 98.025795 76 93 C75.0409375 94.36125 75.0409375 94.36125 74.0625 95.75 C70.2767763 100.2502124 65.44859143 102.4867481 59.6640625 103.34765625 C50.71058217 103.69907271 44.76560153 99.34126436 38 94 C35.36 96.31 32.72 98.62 30 101 C29.34 100.67 28.68 100.34 28 100 C28.33 98.68 28.66 97.36 29 96 C28.43152344 96.32484375 27.86304688 96.6496875 27.27734375 96.984375 C22.83780979 98.96427008 17.88633081 98.4715827 13.25 97.3125 C8.59128608 94.59491688 5.38782081 90.78542951 3 86 C2.65942383 82.86206055 2.65942383 82.86206055 2.70703125 79.38671875 C2.71452393 78.26225342 2.7220166 77.13778809 2.72973633 75.97924805 C2.77070435 73.85483276 2.77070435 73.85483276 2.8125 71.6875 C2.874375 67.170625 2.93625 62.65375 3 58 C13.89 58 24.78 58 36 58 C36 56.02 36 54.04 36 52 C35.67 52.33 35.34 52.66 35 53 C32.6243148 53.0883967 30.27791326 53.11530305 27.90234375 53.09765625 C26.83905602 53.09553383 26.83905602 53.09553383 25.75428772 53.09336853 C23.48198288 53.08775443 21.20977525 53.07519963 18.9375 53.0625 C17.40039204 53.05748681 15.86328255 53.05292359 14.32617188 53.04882812 C10.55074358 53.03778042 6.77538829 53.02050641 3 53 C1.00481776 28.72092651 1.00481776 28.72092651 0.375 19.1875 C0.30023438 18.06730469 0.22546875 16.94710937 0.1484375 15.79296875 C-0.05743283 10.53244013 0 5.26455544 0 0 Z " fill="#151111" transform="translate(171,104)"/>
<path d="M0 0 C8.58 0 17.16 0 26 0 C28.25075192 6.75225576 28.25075192 6.75225576 28.86962891 10.24194336 C29.00962311 11.01972641 29.14961731 11.79750946 29.29385376 12.59886169 C29.43664764 13.42088577 29.57944153 14.24290985 29.7265625 15.08984375 C29.87910492 15.95259415 30.03164734 16.81534454 30.18881226 17.70423889 C30.50871947 19.52174037 30.82627242 21.33965764 31.14160156 23.15795898 C31.62306968 25.92640069 32.1157533 28.69268709 32.609375 31.45898438 C32.91995251 33.23165154 33.22987031 35.00443443 33.5390625 36.77734375 C33.68590485 37.5973436 33.83274719 38.41734344 33.98403931 39.26219177 C34.18457413 40.43359459 34.18457413 40.43359459 34.38916016 41.62866211 C34.50748199 42.3056163 34.62580383 42.9825705 34.74771118 43.68003845 C35.08369336 46.76961549 35 49.89220813 35 53 C24.44 53 13.88 53 3 53 C0.93682029 27.69166219 0.93682029 27.69166219 0.375 19.1875 C0.30023438 18.06730469 0.22546875 16.94710937 0.1484375 15.79296875 C-0.05743283 10.53244013 0 5.26455544 0 0 Z " fill="#FC1615" transform="translate(171,104)"/>
<path d="M0 0 C8.58 0 17.16 0 26 0 C28.37349753 6.52711822 30.58465183 12.71694141 32.3125 19.375 C34.46447333 27.42898043 37.03320258 35.30805145 39.76489258 43.18310547 C40.05517334 44.0288916 40.3454541 44.87467773 40.64453125 45.74609375 C40.90596924 46.49560303 41.16740723 47.2451123 41.43676758 48.01733398 C42 50 42 50 42 53 C31.11 53 20.22 53 9 53 C7.8739299 47.22087485 6.75128869 41.4412853 5.63696289 35.65991211 C5.25772102 33.69762153 4.87657438 31.735698 4.4934082 29.77416992 C3.9396779 26.93765575 3.39305004 24.09984618 2.84765625 21.26171875 C2.6778273 20.39979416 2.50799835 19.53786957 2.33302307 18.64982605 C1.13796419 12.37900897 0.58473933 6.43213265 0 0 Z " fill="#FCFCFC" transform="translate(202,104)"/>
<path d="M0 0 C1.084021 0.00523682 2.16804199 0.01047363 3.28491211 0.01586914 C4.45473633 0.0190918 5.62456055 0.02231445 6.82983398 0.02563477 C8.0615332 0.03401367 9.29323242 0.04239258 10.56225586 0.05102539 C12.41560547 0.05779297 12.41560547 0.05779297 14.30639648 0.06469727 C17.37089703 0.07652931 20.43530307 0.09301366 23.49975586 0.11352539 C23.63962603 8.83831577 23.27175013 17.4950522 22.70019531 26.19628906 C22.56177182 28.30841099 22.42975031 30.42086345 22.29858398 32.53344727 C21.85968131 39.4260511 21.2633467 46.24120782 20.49975586 53.11352539 C9.60975586 53.11352539 -1.28024414 53.11352539 -12.50024414 53.11352539 C-11.07588451 43.85518779 -9.58213922 34.64342095 -7.93774414 25.42602539 C-7.71666992 24.1659668 -7.4955957 22.9059082 -7.26782227 21.60766602 C-7.05448242 20.40948242 -6.84114258 19.21129883 -6.62133789 17.97680664 C-6.42983154 16.8969751 -6.2383252 15.81714355 -6.04101562 14.70458984 C-5.50024414 12.11352539 -5.50024414 12.11352539 -4.50024414 10.11352539 C-4.19232545 7.78275196 -3.9912914 5.45110643 -3.78149414 3.10961914 C-3.36107918 0.12584075 -3.05288373 0.13861839 0 0 Z " fill="#FC1615" transform="translate(111.500244140625,103.886474609375)"/>
<path d="M0 0 C8.58 0 17.16 0 26 0 C25.33901498 7.27083525 24.55358777 14.15005325 23.15234375 21.26171875 C22.97619034 22.17838821 22.80003693 23.09505768 22.61854553 24.039505 C22.06322077 26.92316786 21.50050536 29.80532797 20.9375 32.6875 C20.5561474 34.66071203 20.17528379 36.63401863 19.79492188 38.60742188 C18.86982071 43.40625821 17.93470456 48.2029855 17 53 C6.11 53 -4.78 53 -16 53 C-14.66796885 47.00585982 -13.26198009 41.48467065 -11.25 35.75 C-8.55830758 27.90369983 -6.2157124 19.98750069 -4.00488281 11.99316406 C-3.77124023 11.15366211 -3.53759766 10.31416016 -3.296875 9.44921875 C-3.09416992 8.71018311 -2.89146484 7.97114746 -2.68261719 7.2097168 C-1.92578141 4.75974519 -0.95232284 2.3808071 0 0 Z " fill="#FCFCFC" transform="translate(78,104)"/>
<path d="M0 0 C8.58 0 17.16 0 26 0 C26.9178125 2.10117188 27.835625 4.20234375 28.78125 6.3671875 C29.37868312 7.73415725 29.97616894 9.10110396 30.57373047 10.46801758 C31.53801951 12.67384648 32.50208364 14.87977214 33.46539307 17.08602905 C38.04332045 27.57653948 38.04332045 27.57653948 42.7109375 38.02734375 C43.27264648 39.27185303 43.27264648 39.27185303 43.84570312 40.54150391 C44.51401917 42.01604751 45.18693697 43.48851725 45.86523438 44.95849609 C47.16813513 47.8348889 48 49.80062636 48 53 C37.11 53 26.22 53 15 53 C14.34 50.525 13.68 48.05 13 45.5 C10.61897645 36.73766827 7.77825937 28.15480983 4.76757812 19.58984375 C4.43822266 18.63335937 4.10886719 17.676875 3.76953125 16.69140625 C3.47667236 15.85810791 3.18381348 15.02480957 2.88208008 14.16625977 C1.58886355 9.52421017 0.86201686 4.74109274 0 0 Z " fill="#FB1615" transform="translate(233,104)"/>
<path d="M0 0 C8.58 0 17.16 0 26 0 C29 35.4 29 35.4 29 53 C18.44 53 7.88 53 -3 53 C-3.15565171 40.8656519 -2.59881822 29.01589675 -1.5 16.9375 C-1.35479688 15.2806577 -1.21026278 13.62375663 -1.06640625 11.96679688 C-0.71981251 7.97698504 -0.35969285 3.98873677 0 0 Z " fill="#FDFDFD" transform="translate(140,104)"/>
<path d="M0 0 C8.58 0 17.16 0 26 0 C23.75134864 10.11893113 23.75134864 10.11893113 22.44921875 14.3125 C22.16522217 15.23506592 21.88122559 16.15763184 21.58862305 17.1081543 C21.29125244 18.06246338 20.99388184 19.01677246 20.6875 20 C20.06172523 22.02710474 19.43673226 24.05445098 18.8125 26.08203125 C18.50570312 27.07799316 18.19890625 28.07395508 17.8828125 29.10009766 C16.39901025 33.97415825 14.98432456 38.86872898 13.59838867 43.77148438 C12.64116334 47.09379261 11.55983576 49.88032848 10 53 C-0.56 53 -11.12 53 -22 53 C-20.03285493 47.0985648 -18.03147506 41.45686897 -15.56640625 35.78125 C-15.24719711 35.03846802 -14.92798798 34.29568604 -14.59910583 33.53039551 C-13.59032124 31.18544065 -12.57645333 28.84272378 -11.5625 26.5 C-10.88704548 24.93112917 -10.21191289 23.3621197 -9.53710938 21.79296875 C-6.40042112 14.50896715 -3.22116617 7.24762387 0 0 Z " fill="#FB1615" transform="translate(47,104)"/>
<path d="M0 0 C10.89 0 21.78 0 33 0 C33.0825 4.29 33.165 8.58 33.25 13 C33.28641602 14.33675781 33.32283203 15.67351562 33.36035156 17.05078125 C33.42666309 24.19531341 32.98759692 28.9935479 29 35 C23.87639859 39.07796847 19.69718334 40.36457381 13.28125 40.28125 C8.52478189 39.69483612 5.77624678 36.86016535 2.6875 33.4375 C-0.0875486 29.42909647 -0.11920156 26.34354491 -0.09765625 21.58203125 C-0.09515869 20.4525708 -0.09266113 19.32311035 -0.09008789 18.15942383 C-0.08098389 16.72493896 -0.07187988 15.2904541 -0.0625 13.8125 C-0.041875 9.254375 -0.02125 4.69625 0 0 Z " fill="#FDFDFD" transform="translate(212,162)"/>
<path d="M0 0 C10.89 0 21.78 0 33 0 C33.061875 4.49625 33.12375 8.9925 33.1875 13.625 C33.22846802 15.73575928 33.22846802 15.73575928 33.27026367 17.88916016 C33.27775635 19.01112793 33.28524902 20.1330957 33.29296875 21.2890625 C33.3086792 22.43068848 33.32438965 23.57231445 33.34057617 24.74853516 C32.88703764 29.07844642 31.44901153 32.44775101 28.46484375 35.64453125 C22.92970953 39.87728095 19.84745693 40.45252759 13 40 C7.6414262 38.66035655 4.53932996 35.12905679 1.36987305 30.74536133 C-0.30018471 27.3984001 -0.34404194 25.11506191 -0.29296875 21.38671875 C-0.28547607 20.26225342 -0.2779834 19.13778809 -0.27026367 17.97924805 C-0.24295166 16.56297119 -0.21563965 15.14669434 -0.1875 13.6875 C-0.125625 9.170625 -0.06375 4.65375 0 0 Z " fill="#FC1615" transform="translate(174,162)"/>
<path d="M0 0 C10.89 0 21.78 0 33 0 C33.1546875 6.6825 33.1546875 6.6825 33.3125 13.5 C33.35802002 14.88896484 33.40354004 16.27792969 33.45043945 17.70898438 C33.53215768 25.01828403 33.18883589 30.52289545 28 36 C24.08519056 39.33910217 20.06608006 40.62134619 14.98046875 40.31640625 C10.03379823 39.52610978 6.38650582 37.75680613 3.125 34 C0.05607625 29.66740177 -0.12115148 26.77447719 -0.09765625 21.58203125 C-0.09515869 20.4525708 -0.09266113 19.32311035 -0.09008789 18.15942383 C-0.08098389 16.72493896 -0.07187988 15.2904541 -0.0625 13.8125 C-0.041875 9.254375 -0.02125 4.69625 0 0 Z " fill="#FC1614" transform="translate(99,162)"/>
<path d="M0 0 C10.89 0 21.78 0 33 0 C33.061875 4.49625 33.12375 8.9925 33.1875 13.625 C33.22846802 15.73575928 33.22846802 15.73575928 33.27026367 17.88916016 C33.27775635 19.01112793 33.28524902 20.1330957 33.29296875 21.2890625 C33.3086792 22.43068848 33.32438965 23.57231445 33.34057617 24.74853516 C32.888647 29.06308193 31.4282301 32.39657368 28.53515625 35.64453125 C23.61710763 39.54505257 20.38138608 40.3982486 14.0859375 40.26953125 C9.65470271 39.69695597 6.5781193 37.6657926 3.59375 34.515625 C-1.1579387 27.96756618 -0.56833334 21.3063128 -0.3125 13.5 C-0.209375 9.045 -0.10625 4.59 0 0 Z " fill="#FDFDFD" transform="translate(61,162)"/>
<path d="M0 0 C10.89 0 21.78 0 33 0 C33.0825 4.29 33.165 8.58 33.25 13 C33.28641602 14.33675781 33.32283203 15.67351562 33.36035156 17.05078125 C33.42666309 24.19531341 32.98759692 28.9935479 29 35 C23.87639859 39.07796847 19.69718334 40.36457381 13.28125 40.28125 C8.50020514 39.69180611 5.75038822 36.85179203 2.6875 33.375 C-0.09261681 29.46224301 -0.11853749 27.26362309 -0.09765625 22.4609375 C-0.09515869 21.28837402 -0.09266113 20.11581055 -0.09008789 18.90771484 C-0.08098389 17.41191895 -0.07187988 15.91612305 -0.0625 14.375 C-0.041875 9.63125 -0.02125 4.8875 0 0 Z " fill="#FB1614" transform="translate(250,162)"/>
<path d="M0 0 C10.89 0 21.78 0 33 0 C33.0825 4.66125 33.165 9.3225 33.25 14.125 C33.28641602 15.58437988 33.32283203 17.04375977 33.36035156 18.54736328 C33.3703418 19.70993652 33.38033203 20.87250977 33.390625 22.0703125 C33.41157227 23.25383301 33.43251953 24.43735352 33.45410156 25.65673828 C32.75170795 30.82801685 30.24139 33.87972122 26.4375 37.3125 C21.89105959 40.46003567 17.35999482 40.74588925 12 40 C6.47678436 37.92637167 3.3334783 34.96815521 0.77856445 29.5546875 C-0.85903711 24.18125924 -0.40145176 18.55948581 -0.25 13 C-0.1675 8.71 -0.085 4.42 0 0 Z " fill="#FB1614" transform="translate(23,162)"/>
<path d="M0 0 C10.56 0 21.12 0 32 0 C32.061875 4.681875 32.12375 9.36375 32.1875 14.1875 C32.22846802 16.39022583 32.22846802 16.39022583 32.27026367 18.63745117 C32.27775635 19.80252197 32.28524902 20.96759277 32.29296875 22.16796875 C32.3086792 23.35672607 32.32438965 24.5454834 32.34057617 25.77026367 C31.89781728 29.9690145 30.41208643 32.54378587 27.5 35.546875 C22.69366663 39.40195489 19.29759441 40.3535238 13.28125 40.28515625 C8.11727704 39.63965963 4.29940198 35.78820227 1 32 C-0.13917218 28.58248347 -0.11338481 25.96512063 -0.09765625 22.36328125 C-0.09515869 21.19321533 -0.09266113 20.02314941 -0.09008789 18.81762695 C-0.08098389 17.33093506 -0.07187988 15.84424316 -0.0625 14.3125 C-0.041875 9.589375 -0.02125 4.86625 0 0 Z " fill="#FDFDFD" transform="translate(137,162)"/>
<path d="M0 0 C7.07226068 10.60839102 8.56728486 19.06723318 8.5625 31.8125 C8.56459473 33.06401855 8.56668945 34.31553711 8.56884766 35.60498047 C8.40588189 44.80090596 7.66105275 53.13078935 1 60 C-2 62 -2 62 -4.125 61.8125 C-4.74375 61.544375 -5.3625 61.27625 -6 61 C-6.33 60.01 -6.66 59.02 -7 58 C-5.88625 57.505 -5.88625 57.505 -4.75 57 C-1.03114494 54.29537814 0.60436023 51.28880262 2 47 C2.60568447 42.33207712 2.69444542 37.70286495 2.75 33 C2.8325 28.71 2.915 24.42 3 20 C-7.89 20 -18.78 20 -30 20 C-30 28.91 -30 37.82 -30 47 C-30.33 47 -30.66 47 -31 47 C-31 37.76 -31 28.52 -31 19 C-15.655 18.505 -15.655 18.505 0 18 C0 17.34 0 16.68 0 16 C-10.23 16 -20.46 16 -31 16 C-31 15.67 -31 15.34 -31 15 C-20.44 15 -9.88 15 1 15 C0.34 13.35 -0.32 11.7 -1 10 C-1.3813074 7.67402489 -1.72460254 5.34087842 -2 3 C-1.34 3 -0.68 3 0 3 C0 2.01 0 1.02 0 0 Z " fill="#261010" transform="translate(280,142)"/>
<path d="M0 0 C-0.75 6.625 -0.75 6.625 -3 10 C7.56 10 18.12 10 29 10 C29 10.99 29 11.98 29 13 C18.11 13 7.22 13 -4 13 C-4 22.24 -4 31.48 -4 41 C-5.32 40.34 -6.64 39.68 -8 39 C-8.07462728 34.71333264 -8.12882508 30.42701793 -8.16479492 26.13989258 C-8.17980313 24.68409632 -8.20021633 23.22834468 -8.22631836 21.77270508 C-8.26305676 19.66997211 -8.2798056 17.56784115 -8.29296875 15.46484375 C-8.3086792 14.202771 -8.32438965 12.94069824 -8.34057617 11.64038086 C-7.93971353 7.35560464 -7.03581079 4.77594217 -5 1 C-2 0 -2 0 0 0 Z " fill="#050405" transform="translate(27,148)"/>
<path d="M0 0 C15.84 0.495 15.84 0.495 32 1 C32 1.66 32 2.32 32 3 C32.66 3.33 33.32 3.66 34 4 C22.78 4 11.56 4 0 4 C0 2.68 0 1.36 0 0 Z " fill="#020204" transform="translate(248,157)"/>
<path d="M0 0 C0.33 0 0.66 0 1 0 C1.33 9.24 1.66 18.48 2 28 C3.32 28.66 4.64 29.32 6 30 C7.265625 32.1640625 7.265625 32.1640625 8.25 34.625 C8.58515625 35.44226563 8.9203125 36.25953125 9.265625 37.1015625 C9.50796875 37.72804687 9.7503125 38.35453125 10 39 C9.01 39.66 8.02 40.32 7 41 C2.68370288 37.25163671 1.25090782 34.53906591 0 29 C-0.22705078 25.54321289 -0.22705078 25.54321289 -0.1953125 21.97265625 C-0.18886719 20.68681641 -0.18242187 19.40097656 -0.17578125 18.07617188 C-0.15907601 16.73827846 -0.14214619 15.40038783 -0.125 14.0625 C-0.11495322 12.69727217 -0.10583036 11.3320372 -0.09765625 9.96679688 C-0.07417605 6.64434801 -0.04133359 3.32226679 0 0 Z " fill="#353131" transform="translate(18,159)"/>
<path d="M0 0 C0.66 0 1.32 0 2 0 C2 0.66 2 1.32 2 2 C2.66 2 3.32 2 4 2 C7.40633575 8.97994692 8.75777177 13.30974849 7 21 C4.42054975 18.42054975 3.2476168 15.47982678 1.8125 12.1875 C1.52697266 11.57068359 1.24144531 10.95386719 0.94726562 10.31835938 C-0.72920634 6.48001359 -1.32380318 4.01732179 0 0 Z " fill="#150D0D" transform="translate(272,129)"/>
<path d="M0 0 C2.93146333 2.93146333 2.29161443 5.48440746 2.32226562 9.49414062 C2.31743164 10.95110352 2.31743164 10.95110352 2.3125 12.4375 C2.32861328 13.40494141 2.34472656 14.37238281 2.36132812 15.36914062 C2.36197266 16.29791016 2.36261719 17.22667969 2.36328125 18.18359375 C2.36775269 19.46061157 2.36775269 19.46061157 2.37231445 20.76342773 C1.92634898 23.44243735 1.07463487 24.31622346 -1 26 C-1.02886751 21.85418113 -1.04675327 17.70838784 -1.0625 13.5625 C-1.07087891 12.37849609 -1.07925781 11.19449219 -1.08789062 9.97460938 C-1.09111328 8.84990234 -1.09433594 7.72519531 -1.09765625 6.56640625 C-1.10289307 5.52427979 -1.10812988 4.48215332 -1.11352539 3.40844727 C-1 1 -1 1 0 0 Z " fill="#050205" transform="translate(58,161)"/>
<path d="M0 0 C0.886875 0.845625 1.77375 1.69125 2.6875 2.5625 C2.48125 3.18125 2.275 3.8 2.0625 4.4375 C1.93875 5.13875 1.815 5.84 1.6875 6.5625 C2.3475 7.2225 3.0075 7.8825 3.6875 8.5625 C-0.18955056 7.98812214 -2.42793577 6.13521945 -5.3125 3.5625 C-5.6425 2.9025 -5.9725 2.2425 -6.3125 1.5625 C-7.3025 1.5625 -8.2925 1.5625 -9.3125 1.5625 C-8.9825 0.5725 -8.6525 -0.4175 -8.3125 -1.4375 C-4.53488903 -2.88188066 -2.98140253 -2.52109098 0 0 Z " fill="#1F1717" transform="translate(179.3125,196.4375)"/>
<path d="M0 0 C1.3479743 0.63654342 2.68596724 1.29605388 4 2 C3.67 3.32 3.34 4.64 3 6 C-1.21912747 5.5205537 -3.79663178 4.83374881 -7 2 C-5.21826102 -1.56347795 -3.41396899 -1.10451938 0 0 Z " fill="#191313" transform="translate(31,199)"/>
<path d="M0 0 C1.94158017 3.51624755 2.18311068 5.9715651 2 10 C1.21625 10.28875 0.4325 10.5775 -0.375 10.875 C-3.09671632 11.84912254 -3.09671632 11.84912254 -5 14 C-4.34580901 8.93001981 -2.1453591 4.58009223 0 0 Z " fill="#1B1919" transform="translate(36,117)"/>
<path d="M0 0 C0.66 0.33 1.32 0.66 2 1 C2.19622241 5.21878192 1.80230168 8.17010894 0 12 C-1.5625 10.9375 -1.5625 10.9375 -3 9 C-2.6875 5.3125 -2.6875 5.3125 -2 2 C-1.34 2 -0.68 2 0 2 C0 1.34 0 0.68 0 0 Z " fill="#0E0607" transform="translate(39,113)"/>
<path d="M0 0 C0.33 0.99 0.66 1.98 1 3 C1.99 3.33 2.98 3.66 4 4 C3.34 5.98 2.68 7.96 2 10 C1.67 9.34 1.34 8.68 1 8 C-0.32 8.33 -1.64 8.66 -3 9 C-2.01 6.03 -1.02 3.06 0 0 Z " fill="#1A1313" transform="translate(26,140)"/>
<path d="M0 0 C1.65 1.65 3.3 3.3 5 5 C3.68 6.32 2.36 7.64 1 9 C-0.32 7.68 -1.64 6.36 -3 5 C-2 3 -2 3 0 0 Z " fill="#211212" transform="translate(251,193)"/>
<path d="M0 0 C0 1.98 0 3.96 0 6 C-0.99 6.33 -1.98 6.66 -3 7 C-3.33 7.66 -3.66 8.32 -4 9 C-4.33 6.36 -4.66 3.72 -5 1 C-1.125 0 -1.125 0 0 0 Z " fill="#1C1112" transform="translate(205,119)"/>
<path d="M0 0 C0.99 0.33 1.98 0.66 3 1 C3.33 1.99 3.66 2.98 4 4 C3.01 4.66 2.02 5.32 1 6 C0.34 5.67 -0.32 5.34 -1 5 C-0.67 3.35 -0.34 1.7 0 0 Z " fill="#0D0706" transform="translate(24,194)"/>
<path d="M0 0 C0.66 0 1.32 0 2 0 C2.33 1.98 2.66 3.96 3 6 C1.68 5.67 0.36 5.34 -1 5 C-0.67 3.35 -0.34 1.7 0 0 Z " fill="#070303" transform="translate(272,129)"/>
<path d="M0 0 C1.32 0.33 2.64 0.66 4 1 C2 4 2 4 -0.125 4.6875 C-0.74375 4.790625 -1.3625 4.89375 -2 5 C-1.34 3.35 -0.68 1.7 0 0 Z " fill="#080303" transform="translate(33,128)"/>
</svg>
